{
	"patcher" : 	{
		"fileversion" : 1,
		"appversion" : 		{
			"major" : 8,
			"minor" : 2,
			"revision" : 1,
			"architecture" : "x64",
			"modernui" : 1
		}
,
		"classnamespace" : "box",
		"rect" : [ 59.0, 106.0, 1815.0, 946.0 ],
		"bglocked" : 0,
		"openinpresentation" : 0,
		"default_fontsize" : 12.0,
		"default_fontface" : 0,
		"default_fontname" : "Arial",
		"gridonopen" : 1,
		"gridsize" : [ 15.0, 15.0 ],
		"gridsnaponopen" : 1,
		"objectsnaponopen" : 1,
		"statusbarvisible" : 2,
		"toolbarvisible" : 1,
		"lefttoolbarpinned" : 0,
		"toptoolbarpinned" : 0,
		"righttoolbarpinned" : 0,
		"bottomtoolbarpinned" : 0,
		"toolbars_unpinned_last_save" : 0,
		"tallnewobj" : 0,
		"boxanimatetime" : 200,
		"enablehscroll" : 1,
		"enablevscroll" : 1,
		"devicewidth" : 0.0,
		"description" : "",
		"digest" : "",
		"tags" : "",
		"style" : "",
		"subpatcher_template" : "",
		"assistshowspatchername" : 0,
		"boxes" : [ 			{
				"box" : 				{
					"fontface" : 0,
					"id" : "obj-22",
					"linecount" : 17,
					"maxclass" : "o.display",
					"numinlets" : 1,
					"numoutlets" : 1,
					"outlettype" : [ "" ],
					"patching_rect" : [ 1206.5, 409.0, 270.0, 238.0 ],
					"presentation_linecount" : 17,
					"text" : "/hand/index : 0,\n/index : 4,\n/id : 1474,\n/hand/id : 147,\n/frame/id : 352521,\n/position/x : 44.9148,\n/position/y : 41.0793,\n/position/z : -135.024,\n/direction/x : -0.5849,\n/direction/y : -0.460693,\n/direction/z : -0.667573,\n/velocity/x : -28.9544,\n/velocity/y : -365.822,\n/velocity/z : -77.3411,\n/width : 14.8062,\n/length : 46.5747,\n/istool : 0"
				}

			}
, 			{
				"box" : 				{
					"fontface" : 0,
					"id" : "obj-21",
					"linecount" : 17,
					"maxclass" : "o.display",
					"numinlets" : 1,
					"numoutlets" : 1,
					"outlettype" : [ "" ],
					"patching_rect" : [ 927.5, 409.0, 270.0, 238.0 ],
					"presentation_linecount" : 17,
					"text" : "/hand/index : 0,\n/index : 3,\n/id : 1473,\n/hand/id : 147,\n/frame/id : 352521,\n/position/x : 21.393,\n/position/y : 44.2784,\n/position/z : -145.982,\n/direction/x : -0.569093,\n/direction/y : -0.536325,\n/direction/z : -0.623289,\n/velocity/x : -16.6652,\n/velocity/y : -400.565,\n/velocity/z : -100.332,\n/width : 16.6684,\n/length : 59.4079,\n/istool : 0"
				}

			}
, 			{
				"box" : 				{
					"fontface" : 0,
					"id" : "obj-20",
					"linecount" : 17,
					"maxclass" : "o.display",
					"numinlets" : 1,
					"numoutlets" : 1,
					"outlettype" : [ "" ],
					"patching_rect" : [ 648.5, 409.0, 270.0, 238.0 ],
					"presentation_linecount" : 17,
					"text" : "/hand/index : 0,\n/index : 2,\n/id : 1472,\n/hand/id : 147,\n/frame/id : 352521,\n/position/x : 5.97882,\n/position/y : 60.2606,\n/position/z : -156.336,\n/direction/x : -0.491371,\n/direction/y : -0.442776,\n/direction/z : -0.750002,\n/velocity/x : -21.6428,\n/velocity/y : -380.865,\n/velocity/z : -126.4,\n/width : 17.5168,\n/length : 61.785,\n/istool : 0"
				}

			}
, 			{
				"box" : 				{
					"fontface" : 0,
					"id" : "obj-19",
					"linecount" : 17,
					"maxclass" : "o.display",
					"numinlets" : 1,
					"numoutlets" : 1,
					"outlettype" : [ "" ],
					"patching_rect" : [ 369.5, 409.0, 270.0, 238.0 ],
					"presentation_linecount" : 17,
					"text" : "/hand/index : 0,\n/index : 1,\n/id : 1471,\n/hand/id : 147,\n/frame/id : 352521,\n/position/x : -6.42159,\n/position/y : 72.5275,\n/position/z : -146.185,\n/direction/x : -0.445976,\n/direction/y : -0.439261,\n/direction/z : -0.779843,\n/velocity/x : -73.558,\n/velocity/y : -451.865,\n/velocity/z : -89.4292,\n/width : 17.8355,\n/length : 54.2249,\n/istool : 0"
				}

			}
, 			{
				"box" : 				{
					"fontface" : 0,
					"id" : "obj-18",
					"linecount" : 17,
					"maxclass" : "o.display",
					"numinlets" : 1,
					"numoutlets" : 1,
					"outlettype" : [ "" ],
					"patching_rect" : [ 90.5, 409.0, 270.0, 238.0 ],
					"presentation_linecount" : 26,
					"text" : "/hand/index : 0,\n/index : 0,\n/id : 1470,\n/hand/id : 147,\n/frame/id : 352521,\n/position/x : -14.4526,\n/position/y : 71.1343,\n/position/z : -102.28,\n/direction/x : -0.261722,\n/direction/y : 0.0236173,\n/direction/z : -0.964854,\n/velocity/x : -22.4698,\n/velocity/y : -594.866,\n/velocity/z : -133.823,\n/width : 18.672,\n/length : 48.0552,\n/istool : 0"
				}

			}
, 			{
				"box" : 				{
					"id" : "obj-17",
					"maxclass" : "newobj",
					"numinlets" : 1,
					"numoutlets" : 6,
					"outlettype" : [ "", "", "", "", "", "FullPacket" ],
					"patching_rect" : [ 299.0, 328.0, 113.0, 22.0 ],
					"text" : "o.route /0 /1 /2 /3 /4"
				}

			}
, 			{
				"box" : 				{
					"id" : "obj-15",
					"maxclass" : "newobj",
					"numinlets" : 1,
					"numoutlets" : 2,
					"outlettype" : [ "", "FullPacket" ],
					"patching_rect" : [ 299.0, 290.0, 83.0, 22.0 ],
					"text" : "o.route /finger"
				}

			}
, 			{
				"box" : 				{
					"id" : "obj-13",
					"maxclass" : "newobj",
					"numinlets" : 3,
					"numoutlets" : 0,
					"patcher" : 					{
						"fileversion" : 1,
						"appversion" : 						{
							"major" : 8,
							"minor" : 2,
							"revision" : 1,
							"architecture" : "x64",
							"modernui" : 1
						}
,
						"classnamespace" : "box",
						"rect" : [ 893.0, 87.0, 1291.0, 1068.0 ],
						"bglocked" : 0,
						"openinpresentation" : 0,
						"default_fontsize" : 12.0,
						"default_fontface" : 0,
						"default_fontname" : "Arial",
						"gridonopen" : 1,
						"gridsize" : [ 15.0, 15.0 ],
						"gridsnaponopen" : 1,
						"objectsnaponopen" : 1,
						"statusbarvisible" : 2,
						"toolbarvisible" : 1,
						"lefttoolbarpinned" : 0,
						"toptoolbarpinned" : 0,
						"righttoolbarpinned" : 0,
						"bottomtoolbarpinned" : 0,
						"toolbars_unpinned_last_save" : 0,
						"tallnewobj" : 0,
						"boxanimatetime" : 200,
						"enablehscroll" : 1,
						"enablevscroll" : 1,
						"devicewidth" : 0.0,
						"description" : "",
						"digest" : "",
						"tags" : "",
						"style" : "",
						"subpatcher_template" : "",
						"assistshowspatchername" : 0,
						"boxes" : [ 							{
								"box" : 								{
									"fontface" : 0,
									"id" : "obj-9",
									"linecount" : 104,
									"maxclass" : "o.display",
									"numinlets" : 1,
									"numoutlets" : 1,
									"outlettype" : [ "" ],
									"patching_rect" : [ 592.0, 100.0, 256.0, 1352.0 ],
									"text" : "/2/index : 2,\n/2/id : 143,\n/2/frame/id : 344719,\n/2/fingers/count : 5,\n/2/finger/0/hand/index : 2,\n/2/finger/0/index : 0,\n/2/finger/0/id : 1430,\n/2/finger/0/hand/id : 143,\n/2/finger/0/frame/id : 344719,\n/2/finger/0/position/x : -164.967,\n/2/finger/0/position/y : 66.3457,\n/2/finger/0/position/z : 54.2869,\n/2/finger/0/direction/x : 0.367034,\n/2/finger/0/direction/y : -0.929572,\n/2/finger/0/direction/z : 0.0343685,\n/2/finger/0/velocity/x : -328.305,\n/2/finger/0/velocity/y : -46.5144,\n/2/finger/0/velocity/z : -139.314,\n/2/finger/0/width : 18.672,\n/2/finger/0/length : 48.0552,\n/2/finger/0/istool : 0,\n/2/finger/1/hand/index : 2,\n/2/finger/1/index : 1,\n/2/finger/1/id : 1431,\n/2/finger/1/hand/id : 143,\n/2/finger/1/frame/id : 344719,\n/2/finger/1/position/x : -87.7444,\n/2/finger/1/position/y : 60.5077,\n/2/finger/1/position/z : 16.996,\n/2/finger/1/direction/x : 0.686885,\n/2/finger/1/direction/y : -0.719026,\n/2/finger/1/direction/z : -0.105786,\n/2/finger/1/velocity/x : -152.276,\n/2/finger/1/velocity/y : -389.679,\n/2/finger/1/velocity/z : 147.043,\n/2/finger/1/width : 17.8355,\n/2/finger/1/length : 54.2249,\n/2/finger/1/istool : 0,\n/2/finger/2/hand/index : 2,\n/2/finger/2/index : 2,\n/2/finger/2/id : 1432,\n/2/finger/2/hand/id : 143,\n/2/finger/2/frame/id : 344719,\n/2/finger/2/position/x : -84.8591,\n/2/finger/2/position/y : 55.1559,\n/2/finger/2/position/z : -1.14667,\n/2/finger/2/direction/x : 0.731949,\n/2/finger/2/direction/y : -0.68006,\n/2/finger/2/direction/z : -0.0420592,\n/2/finger/2/velocity/x : -146.185,\n/2/finger/2/velocity/y : -392.561,\n/2/finger/2/velocity/z : 287.465,\n/2/finger/2/width : 17.5168,\n/2/finger/2/length : 61.785,\n/2/finger/2/istool : 0,\n/2/finger/3/hand/index : 2,\n/2/finger/3/index : 3,\n/2/finger/3/id : 1433,\n/2/finger/3/hand/id : 143,\n/2/finger/3/frame/id : 344719,\n/2/finger/3/position/x : -115.173,\n/2/finger/3/position/y : 46.3485,\n/2/finger/3/position/z : -25.2487,\n/2/finger/3/direction/x : 0.508172,\n/2/finger/3/direction/y : -0.85205,\n/2/finger/3/direction/z : -0.125588,\n/2/finger/3/velocity/x : -354.384,\n/2/finger/3/velocity/y : -382.076,\n/2/finger/3/velocity/z : 238.238,\n/2/finger/3/width : 16.6684,\n/2/finger/3/length : 59.4079,\n/2/finger/3/istool : 0,\n/2/finger/4/hand/index : 2,\n/2/finger/4/index : 4,\n/2/finger/4/id : 1434,\n/2/finger/4/hand/id : 143,\n/2/finger/4/frame/id : 344719,\n/2/finger/4/position/x : -149.749,\n/2/finger/4/position/y : 58.6489,\n/2/finger/4/position/z : -50.7643,\n/2/finger/4/direction/x : 0.379457,\n/2/finger/4/direction/y : -0.845928,\n/2/finger/4/direction/z : -0.374724,\n/2/finger/4/velocity/x : -287.605,\n/2/finger/4/velocity/y : -133.687,\n/2/finger/4/velocity/z : 214.462,\n/2/finger/4/width : 14.8062,\n/2/finger/4/length : 46.5747,\n/2/finger/4/istool : 0,\n/2/palm/hand/index : 2,\n/2/palm/hand/id : 143,\n/2/palm/frame/id : 344719,\n/2/palm/position/x : -169.037,\n/2/palm/position/y : 118.781,\n/2/palm/position/z : 11.0818,\n/2/palm/direction/x : 0.755899,\n/2/palm/direction/y : -0.613405,\n/2/palm/direction/z : -0.228804,\n/2/palm/velocity/x : 142.647,\n/2/palm/velocity/y : 205.102,\n/2/palm/velocity/z : 109.365,\n/2/palm/normal/x : -0.522484,\n/2/palm/normal/y : -0.775806,\n/2/palm/normal/z : 0.353745"
								}

							}
, 							{
								"box" : 								{
									"fontface" : 0,
									"id" : "obj-8",
									"linecount" : 104,
									"maxclass" : "o.display",
									"numinlets" : 1,
									"numoutlets" : 1,
									"outlettype" : [ "" ],
									"patching_rect" : [ 321.0, 100.0, 256.0, 1352.0 ],
									"text" : "/index : 1,\n/id : 140,\n/frame/id : 344789,\n/fingers/count : 5,\n/finger/0/hand/index : 1,\n/finger/0/index : 0,\n/finger/0/id : 1400,\n/finger/0/hand/id : 140,\n/finger/0/frame/id : 344789,\n/finger/0/position/x : -131.001,\n/finger/0/position/y : 107.711,\n/finger/0/position/z : -74.9381,\n/finger/0/direction/x : 0.223961,\n/finger/0/direction/y : 0.0135054,\n/finger/0/direction/z : -0.974505,\n/finger/0/velocity/x : -361.7,\n/finger/0/velocity/y : -314.552,\n/finger/0/velocity/z : -808.335,\n/finger/0/width : 17.6163,\n/finger/0/length : 45.3383,\n/finger/0/istool : 0,\n/finger/1/hand/index : 1,\n/finger/1/index : 1,\n/finger/1/id : 1401,\n/finger/1/hand/id : 140,\n/finger/1/frame/id : 344789,\n/finger/1/position/x : -184.408,\n/finger/1/position/y : 111.583,\n/finger/1/position/z : -106.038,\n/finger/1/direction/x : -0.308042,\n/finger/1/direction/y : -0.707581,\n/finger/1/direction/z : -0.635956,\n/finger/1/velocity/x : -388.292,\n/finger/1/velocity/y : 56.1574,\n/finger/1/velocity/z : -702.929,\n/finger/1/width : 16.8271,\n/finger/1/length : 51.1592,\n/finger/1/istool : 0,\n/finger/2/hand/index : 1,\n/finger/2/index : 2,\n/finger/2/id : 1402,\n/finger/2/hand/id : 140,\n/finger/2/frame/id : 344789,\n/finger/2/position/x : -202.32,\n/finger/2/position/y : 115.111,\n/finger/2/position/z : -109.175,\n/finger/2/direction/x : -0.22282,\n/finger/2/direction/y : -0.687773,\n/finger/2/direction/z : -0.690884,\n/finger/2/velocity/x : -421.59,\n/finger/2/velocity/y : 302.662,\n/finger/2/velocity/z : -781.537,\n/finger/2/width : 16.5265,\n/finger/2/length : 58.2918,\n/finger/2/istool : 0,\n/finger/3/hand/index : 1,\n/finger/3/index : 3,\n/finger/3/id : 1403,\n/finger/3/hand/id : 140,\n/finger/3/frame/id : 344789,\n/finger/3/position/x : -218.007,\n/finger/3/position/y : 119.756,\n/finger/3/position/z : -96.9599,\n/finger/3/direction/x : -0.202018,\n/finger/3/direction/y : -0.644093,\n/finger/3/direction/z : -0.737789,\n/finger/3/velocity/x : -415.863,\n/finger/3/velocity/y : 388.518,\n/finger/3/velocity/z : -779.701,\n/finger/3/width : 15.726,\n/finger/3/length : 56.0491,\n/finger/3/istool : 0,\n/finger/4/hand/index : 1,\n/finger/4/index : 4,\n/finger/4/id : 1404,\n/finger/4/hand/id : 140,\n/finger/4/frame/id : 344789,\n/finger/4/position/x : -233.489,\n/finger/4/position/y : 129.245,\n/finger/4/position/z : -75.0044,\n/finger/4/direction/x : -0.233172,\n/finger/4/direction/y : -0.515941,\n/finger/4/direction/z : -0.824279,\n/finger/4/velocity/x : -331.527,\n/finger/4/velocity/y : 400.442,\n/finger/4/velocity/z : -716.933,\n/finger/4/width : 13.9691,\n/finger/4/length : 43.9415,\n/finger/4/istool : 0,\n/palm/hand/index : 1,\n/palm/hand/id : 140,\n/palm/frame/id : 344789,\n/palm/position/x : -181.811,\n/palm/position/y : 134.419,\n/palm/position/z : -28.204,\n/palm/direction/x : -0.208249,\n/palm/direction/y : 0.377194,\n/palm/direction/z : -0.902417,\n/palm/velocity/x : -164.943,\n/palm/velocity/y : -201.628,\n/palm/velocity/z : -637.561,\n/palm/normal/x : -0.261279,\n/palm/normal/y : -0.91057,\n/palm/normal/z : -0.320307"
								}

							}
, 							{
								"box" : 								{
									"fontface" : 0,
									"id" : "obj-4",
									"linecount" : 104,
									"maxclass" : "o.display",
									"numinlets" : 1,
									"numoutlets" : 1,
									"outlettype" : [ "" ],
									"patching_rect" : [ 50.0, 100.0, 256.0, 1352.0 ],
									"text" : "/index : 0,\n/id : 147,\n/frame/id : 352521,\n/fingers/count : 5,\n/finger/0/hand/index : 0,\n/finger/0/index : 0,\n/finger/0/id : 1470,\n/finger/0/hand/id : 147,\n/finger/0/frame/id : 352521,\n/finger/0/position/x : -14.4526,\n/finger/0/position/y : 71.1343,\n/finger/0/position/z : -102.28,\n/finger/0/direction/x : -0.261722,\n/finger/0/direction/y : 0.0236173,\n/finger/0/direction/z : -0.964854,\n/finger/0/velocity/x : -22.4698,\n/finger/0/velocity/y : -594.866,\n/finger/0/velocity/z : -133.823,\n/finger/0/width : 18.672,\n/finger/0/length : 48.0552,\n/finger/0/istool : 0,\n/finger/1/hand/index : 0,\n/finger/1/index : 1,\n/finger/1/id : 1471,\n/finger/1/hand/id : 147,\n/finger/1/frame/id : 352521,\n/finger/1/position/x : -6.42159,\n/finger/1/position/y : 72.5275,\n/finger/1/position/z : -146.185,\n/finger/1/direction/x : -0.445976,\n/finger/1/direction/y : -0.439261,\n/finger/1/direction/z : -0.779843,\n/finger/1/velocity/x : -73.558,\n/finger/1/velocity/y : -451.865,\n/finger/1/velocity/z : -89.4292,\n/finger/1/width : 17.8355,\n/finger/1/length : 54.2249,\n/finger/1/istool : 0,\n/finger/2/hand/index : 0,\n/finger/2/index : 2,\n/finger/2/id : 1472,\n/finger/2/hand/id : 147,\n/finger/2/frame/id : 352521,\n/finger/2/position/x : 5.97882,\n/finger/2/position/y : 60.2606,\n/finger/2/position/z : -156.336,\n/finger/2/direction/x : -0.491371,\n/finger/2/direction/y : -0.442776,\n/finger/2/direction/z : -0.750002,\n/finger/2/velocity/x : -21.6428,\n/finger/2/velocity/y : -380.865,\n/finger/2/velocity/z : -126.4,\n/finger/2/width : 17.5168,\n/finger/2/length : 61.785,\n/finger/2/istool : 0,\n/finger/3/hand/index : 0,\n/finger/3/index : 3,\n/finger/3/id : 1473,\n/finger/3/hand/id : 147,\n/finger/3/frame/id : 352521,\n/finger/3/position/x : 21.393,\n/finger/3/position/y : 44.2784,\n/finger/3/position/z : -145.982,\n/finger/3/direction/x : -0.569093,\n/finger/3/direction/y : -0.536325,\n/finger/3/direction/z : -0.623289,\n/finger/3/velocity/x : -16.6652,\n/finger/3/velocity/y : -400.565,\n/finger/3/velocity/z : -100.332,\n/finger/3/width : 16.6684,\n/finger/3/length : 59.4079,\n/finger/3/istool : 0,\n/finger/4/hand/index : 0,\n/finger/4/index : 4,\n/finger/4/id : 1474,\n/finger/4/hand/id : 147,\n/finger/4/frame/id : 352521,\n/finger/4/position/x : 44.9148,\n/finger/4/position/y : 41.0793,\n/finger/4/position/z : -135.024,\n/finger/4/direction/x : -0.5849,\n/finger/4/direction/y : -0.460693,\n/finger/4/direction/z : -0.667573,\n/finger/4/velocity/x : -28.9544,\n/finger/4/velocity/y : -365.822,\n/finger/4/velocity/z : -77.3411,\n/finger/4/width : 14.8062,\n/finger/4/length : 46.5747,\n/finger/4/istool : 0,\n/palm/hand/index : 0,\n/palm/hand/id : 147,\n/palm/frame/id : 352521,\n/palm/position/x : 44.2456,\n/palm/position/y : 75.1573,\n/palm/position/z : -70.4311,\n/palm/direction/x : -0.0283552,\n/palm/direction/y : 0.452827,\n/palm/direction/z : -0.891147,\n/palm/velocity/x : -118.492,\n/palm/velocity/y : -416.134,\n/palm/velocity/z : -57.2362,\n/palm/normal/x : -0.474364,\n/palm/normal/y : -0.790822,\n/palm/normal/z : -0.386754"
								}

							}
, 							{
								"box" : 								{
									"comment" : "",
									"id" : "obj-10",
									"index" : 1,
									"maxclass" : "inlet",
									"numinlets" : 0,
									"numoutlets" : 1,
									"outlettype" : [ "" ],
									"patching_rect" : [ 50.0, 40.0, 30.0, 30.0 ]
								}

							}
, 							{
								"box" : 								{
									"comment" : "",
									"id" : "obj-11",
									"index" : 2,
									"maxclass" : "inlet",
									"numinlets" : 0,
									"numoutlets" : 1,
									"outlettype" : [ "" ],
									"patching_rect" : [ 321.0, 40.0, 30.0, 30.0 ]
								}

							}
, 							{
								"box" : 								{
									"comment" : "",
									"id" : "obj-12",
									"index" : 3,
									"maxclass" : "inlet",
									"numinlets" : 0,
									"numoutlets" : 1,
									"outlettype" : [ "FullPacket" ],
									"patching_rect" : [ 592.0, 40.0, 30.0, 30.0 ]
								}

							}
 ],
						"lines" : [ 							{
								"patchline" : 								{
									"destination" : [ "obj-4", 0 ],
									"source" : [ "obj-10", 0 ]
								}

							}
, 							{
								"patchline" : 								{
									"destination" : [ "obj-8", 0 ],
									"source" : [ "obj-11", 0 ]
								}

							}
, 							{
								"patchline" : 								{
									"destination" : [ "obj-9", 0 ],
									"source" : [ "obj-12", 0 ]
								}

							}
 ]
					}
,
					"patching_rect" : [ 265.0, 219.0, 56.0, 22.0 ],
					"saved_object_attributes" : 					{
						"description" : "",
						"digest" : "",
						"globalpatchername" : "",
						"tags" : ""
					}
,
					"text" : "p display"
				}

			}
, 			{
				"box" : 				{
					"id" : "obj-6",
					"maxclass" : "newobj",
					"numinlets" : 1,
					"numoutlets" : 3,
					"outlettype" : [ "", "", "FullPacket" ],
					"patching_rect" : [ 265.0, 156.0, 561.0, 22.0 ],
					"text" : "o.route /0 /1"
				}

			}
, 			{
				"box" : 				{
					"id" : "obj-57",
					"maxclass" : "number",
					"numinlets" : 1,
					"numoutlets" : 2,
					"outlettype" : [ "", "bang" ],
					"parameter_enable" : 0,
					"patching_rect" : [ 375.0, 32.0, 50.0, 22.0 ]
				}

			}
, 			{
				"box" : 				{
					"id" : "obj-52",
					"maxclass" : "newobj",
					"numinlets" : 1,
					"numoutlets" : 2,
					"outlettype" : [ "bang", "bang" ],
					"patching_rect" : [ 288.0, 92.0, 32.0, 22.0 ],
					"text" : "t b b"
				}

			}
, 			{
				"box" : 				{
					"id" : "obj-7",
					"maxclass" : "toggle",
					"numinlets" : 1,
					"numoutlets" : 1,
					"outlettype" : [ "int" ],
					"parameter_enable" : 0,
					"patching_rect" : [ 296.0, 19.0, 24.0, 24.0 ]
				}

			}
, 			{
				"box" : 				{
					"id" : "obj-5",
					"maxclass" : "newobj",
					"numinlets" : 2,
					"numoutlets" : 1,
					"outlettype" : [ "bang" ],
					"patching_rect" : [ 288.0, 57.0, 49.0, 22.0 ],
					"text" : "metro 2"
				}

			}
, 			{
				"box" : 				{
					"fontface" : 0,
					"id" : "obj-3",
					"linecount" : 4,
					"maxclass" : "o.display",
					"numinlets" : 1,
					"numoutlets" : 1,
					"outlettype" : [ "" ],
					"patching_rect" : [ 107.0, 219.0, 150.0, 72.0 ],
					"text" : "/0/id : 362262,\n/0/timestamp : 1503003342,\n/0/hands/count : 0"
				}

			}
, 			{
				"box" : 				{
					"id" : "obj-2",
					"maxclass" : "newobj",
					"numinlets" : 1,
					"numoutlets" : 3,
					"outlettype" : [ "", "", "FullPacket" ],
					"patching_rect" : [ 107.0, 76.0, 117.0, 22.0 ],
					"text" : "o.route /frame /hand"
				}

			}
, 			{
				"box" : 				{
					"id" : "obj-1",
					"maxclass" : "newobj",
					"numinlets" : 1,
					"numoutlets" : 1,
					"outlettype" : [ "" ],
					"patching_rect" : [ 107.0, 43.0, 77.0, 22.0 ],
					"text" : "o.leapmotion"
				}

			}
 ],
		"lines" : [ 			{
				"patchline" : 				{
					"destination" : [ "obj-2", 0 ],
					"source" : [ "obj-1", 0 ]
				}

			}
, 			{
				"patchline" : 				{
					"destination" : [ "obj-17", 0 ],
					"source" : [ "obj-15", 0 ]
				}

			}
, 			{
				"patchline" : 				{
					"destination" : [ "obj-18", 0 ],
					"source" : [ "obj-17", 0 ]
				}

			}
, 			{
				"patchline" : 				{
					"destination" : [ "obj-19", 0 ],
					"source" : [ "obj-17", 1 ]
				}

			}
, 			{
				"patchline" : 				{
					"destination" : [ "obj-20", 0 ],
					"source" : [ "obj-17", 2 ]
				}

			}
, 			{
				"patchline" : 				{
					"destination" : [ "obj-21", 0 ],
					"source" : [ "obj-17", 3 ]
				}

			}
, 			{
				"patchline" : 				{
					"destination" : [ "obj-22", 0 ],
					"source" : [ "obj-17", 4 ]
				}

			}
, 			{
				"patchline" : 				{
					"destination" : [ "obj-3", 0 ],
					"source" : [ "obj-2", 0 ]
				}

			}
, 			{
				"patchline" : 				{
					"destination" : [ "obj-6", 0 ],
					"source" : [ "obj-2", 1 ]
				}

			}
, 			{
				"patchline" : 				{
					"destination" : [ "obj-52", 0 ],
					"source" : [ "obj-5", 0 ]
				}

			}
, 			{
				"patchline" : 				{
					"destination" : [ "obj-1", 0 ],
					"source" : [ "obj-52", 0 ]
				}

			}
, 			{
				"patchline" : 				{
					"destination" : [ "obj-5", 1 ],
					"source" : [ "obj-57", 0 ]
				}

			}
, 			{
				"patchline" : 				{
					"destination" : [ "obj-13", 2 ],
					"source" : [ "obj-6", 2 ]
				}

			}
, 			{
				"patchline" : 				{
					"destination" : [ "obj-13", 1 ],
					"source" : [ "obj-6", 1 ]
				}

			}
, 			{
				"patchline" : 				{
					"destination" : [ "obj-13", 0 ],
					"order" : 1,
					"source" : [ "obj-6", 0 ]
				}

			}
, 			{
				"patchline" : 				{
					"destination" : [ "obj-15", 0 ],
					"order" : 0,
					"source" : [ "obj-6", 0 ]
				}

			}
, 			{
				"patchline" : 				{
					"destination" : [ "obj-5", 0 ],
					"source" : [ "obj-7", 0 ]
				}

			}
 ],
		"dependency_cache" : [ 			{
				"name" : "o.leapmotion.maxpat",
				"bootpath" : "~/Development/HfMT-ZM4/o.io.leapmotion/patchers",
				"patcherrelativepath" : "../patchers",
				"type" : "JSON",
				"implicit" : 1
			}
, 			{
				"name" : "_.leapmotion.mxo",
				"type" : "iLaX"
			}
, 			{
				"name" : "o.pack.mxo",
				"type" : "iLaX"
			}
, 			{
				"name" : "o.prepend.mxo",
				"type" : "iLaX"
			}
, 			{
				"name" : "o.collect.mxo",
				"type" : "iLaX"
			}
, 			{
				"name" : "o.route.mxo",
				"type" : "iLaX"
			}
, 			{
				"name" : "o.display.mxo",
				"type" : "iLaX"
			}
 ],
		"autosave" : 0
	}

}
